<svg width="312" height="96" viewBox="0 0 312 96" fill="none" xmlns="http://www.w3.org/2000/svg">
<g clip-path="url(#clip0_1419_146)">
<rect width="312" height="96" fill="white"/>
<path d="M20.1453 4.98V12H18.4353V9.11H15.7753V12H14.0653V4.98H15.7753V7.73H18.4353V4.98H20.1453ZM26.7298 7.24C26.7298 7.64667 26.6364 8.02 26.4498 8.36C26.2631 8.69333 25.9764 8.96333 25.5898 9.17C25.2031 9.37667 24.7231 9.48 24.1498 9.48H23.0898V12H21.3798V4.98H24.1498C24.7098 4.98 25.1831 5.07667 25.5698 5.27C25.9564 5.46333 26.2464 5.73 26.4398 6.07C26.6331 6.41 26.7298 6.8 26.7298 7.24ZM24.0198 8.12C24.3464 8.12 24.5898 8.04333 24.7498 7.89C24.9098 7.73667 24.9898 7.52 24.9898 7.24C24.9898 6.96 24.9098 6.74333 24.7498 6.59C24.5898 6.43667 24.3464 6.36 24.0198 6.36H23.0898V8.12H24.0198Z" fill="#74CB48"/>
<path d="M11.7361 26.76H9.11609L8.69609 28H6.90609L9.44609 20.98H11.4261L13.9661 28H12.1561L11.7361 26.76ZM11.2961 25.44L10.4261 22.87L9.56609 25.44H11.2961ZM19.7891 20.98V22.35H17.9291V28H16.2191V22.35H14.3591V20.98H19.7891ZM24.7173 28L22.3573 24.9V28H20.6473V20.98H22.3573V24.06L24.6973 20.98H26.7073L23.9873 24.42L26.8073 28H24.7173Z" fill="#74CB48"/>
<path d="M12.1055 36.98C12.8455 36.98 13.4921 37.1267 14.0455 37.42C14.5988 37.7133 15.0255 38.1267 15.3255 38.66C15.6321 39.1867 15.7855 39.7967 15.7855 40.49C15.7855 41.1767 15.6321 41.7867 15.3255 42.32C15.0255 42.8533 14.5955 43.2667 14.0355 43.56C13.4821 43.8533 12.8388 44 12.1055 44H9.47547V36.98H12.1055ZM11.9955 42.52C12.6421 42.52 13.1455 42.3433 13.5055 41.99C13.8655 41.6367 14.0455 41.1367 14.0455 40.49C14.0455 39.8433 13.8655 39.34 13.5055 38.98C13.1455 38.62 12.6421 38.44 11.9955 38.44H11.1855V42.52H11.9955ZM18.4511 38.35V39.77H20.7411V41.09H18.4511V42.63H21.0411V44H16.7411V36.98H21.0411V38.35H18.4511ZM26.7213 36.98V38.35H23.8613V39.83H26.0013V41.16H23.8613V44H22.1513V36.98H26.7213Z" fill="#74CB48"/>
<path d="M3.75375 60.07C3.24042 60.07 2.78042 59.9867 2.37375 59.82C1.96708 59.6533 1.64042 59.4067 1.39375 59.08C1.15375 58.7533 1.02708 58.36 1.01375 57.9H2.83375C2.86042 58.16 2.95042 58.36 3.10375 58.5C3.25708 58.6333 3.45708 58.7 3.70375 58.7C3.95708 58.7 4.15708 58.6433 4.30375 58.53C4.45042 58.41 4.52375 58.2467 4.52375 58.04C4.52375 57.8667 4.46375 57.7233 4.34375 57.61C4.23042 57.4967 4.08708 57.4033 3.91375 57.33C3.74708 57.2567 3.50708 57.1733 3.19375 57.08C2.74042 56.94 2.37042 56.8 2.08375 56.66C1.79708 56.52 1.55042 56.3133 1.34375 56.04C1.13708 55.7667 1.03375 55.41 1.03375 54.97C1.03375 54.3167 1.27042 53.8067 1.74375 53.44C2.21708 53.0667 2.83375 52.88 3.59375 52.88C4.36708 52.88 4.99042 53.0667 5.46375 53.44C5.93708 53.8067 6.19042 54.32 6.22375 54.98H4.37375C4.36042 54.7533 4.27708 54.5767 4.12375 54.45C3.97042 54.3167 3.77375 54.25 3.53375 54.25C3.32708 54.25 3.16042 54.3067 3.03375 54.42C2.90708 54.5267 2.84375 54.6833 2.84375 54.89C2.84375 55.1167 2.95042 55.2933 3.16375 55.42C3.37708 55.5467 3.71042 55.6833 4.16375 55.83C4.61708 55.9833 4.98375 56.13 5.26375 56.27C5.55042 56.41 5.79708 56.6133 6.00375 56.88C6.21042 57.1467 6.31375 57.49 6.31375 57.91C6.31375 58.31 6.21042 58.6733 6.00375 59C5.80375 59.3267 5.51042 59.5867 5.12375 59.78C4.73708 59.9733 4.28042 60.07 3.75375 60.07ZM11.7361 58.76H9.11609L8.69609 60H6.90609L9.44609 52.98H11.4261L13.9661 60H12.1561L11.7361 58.76ZM11.2961 57.44L10.4261 54.87L9.56609 57.44H11.2961ZM19.7891 52.98V54.35H17.9291V60H16.2191V54.35H14.3591V52.98H19.7891ZM24.7173 60L22.3573 56.9V60H20.6473V52.98H22.3573V56.06L24.6973 52.98H26.7073L23.9873 56.42L26.8073 60H24.7173Z" fill="#74CB48"/>
<path d="M5.86313 76.07C5.34979 76.07 4.88979 75.9867 4.48313 75.82C4.07646 75.6533 3.74979 75.4067 3.50313 75.08C3.26313 74.7533 3.13646 74.36 3.12313 73.9H4.94313C4.96979 74.16 5.05979 74.36 5.21313 74.5C5.36646 74.6333 5.56646 74.7 5.81313 74.7C6.06646 74.7 6.26646 74.6433 6.41313 74.53C6.55979 74.41 6.63313 74.2467 6.63313 74.04C6.63313 73.8667 6.57313 73.7233 6.45313 73.61C6.33979 73.4967 6.19646 73.4033 6.02313 73.33C5.85646 73.2567 5.61646 73.1733 5.30313 73.08C4.84979 72.94 4.47979 72.8 4.19313 72.66C3.90646 72.52 3.65979 72.3133 3.45313 72.04C3.24646 71.7667 3.14313 71.41 3.14313 70.97C3.14313 70.3167 3.37979 69.8067 3.85313 69.44C4.32646 69.0667 4.94313 68.88 5.70313 68.88C6.47646 68.88 7.09979 69.0667 7.57313 69.44C8.04646 69.8067 8.29979 70.32 8.33313 70.98H6.48313C6.46979 70.7533 6.38646 70.5767 6.23313 70.45C6.07979 70.3167 5.88313 70.25 5.64312 70.25C5.43646 70.25 5.26979 70.3067 5.14313 70.42C5.01646 70.5267 4.95313 70.6833 4.95313 70.89C4.95313 71.1167 5.05979 71.2933 5.27312 71.42C5.48646 71.5467 5.81979 71.6833 6.27313 71.83C6.72646 71.9833 7.09313 72.13 7.37313 72.27C7.65979 72.41 7.90646 72.6133 8.11313 72.88C8.31979 73.1467 8.42313 73.49 8.42313 73.91C8.42313 74.31 8.31979 74.6733 8.11313 75C7.91313 75.3267 7.61979 75.5867 7.23313 75.78C6.84646 75.9733 6.38979 76.07 5.86313 76.07ZM12.1055 68.98C12.8455 68.98 13.4921 69.1267 14.0455 69.42C14.5988 69.7133 15.0255 70.1267 15.3255 70.66C15.6321 71.1867 15.7855 71.7967 15.7855 72.49C15.7855 73.1767 15.6321 73.7867 15.3255 74.32C15.0255 74.8533 14.5955 75.2667 14.0355 75.56C13.4821 75.8533 12.8388 76 12.1055 76H9.47547V68.98H12.1055ZM11.9955 74.52C12.6421 74.52 13.1455 74.3433 13.5055 73.99C13.8655 73.6367 14.0455 73.1367 14.0455 72.49C14.0455 71.8433 13.8655 71.34 13.5055 70.98C13.1455 70.62 12.6421 70.44 11.9955 70.44H11.1855V74.52H11.9955ZM18.4511 70.35V71.77H20.7411V73.09H18.4511V74.63H21.0411V76H16.7411V68.98H21.0411V70.35H18.4511ZM26.7213 68.98V70.35H23.8613V71.83H26.0013V73.16H23.8613V76H22.1513V68.98H26.7213Z" fill="#74CB48"/>
<path d="M10.5018 92.07C9.98846 92.07 9.52846 91.9867 9.1218 91.82C8.71513 91.6533 8.38846 91.4067 8.1418 91.08C7.9018 90.7533 7.77513 90.36 7.7618 89.9H9.5818C9.60846 90.16 9.69846 90.36 9.8518 90.5C10.0051 90.6333 10.2051 90.7 10.4518 90.7C10.7051 90.7 10.9051 90.6433 11.0518 90.53C11.1985 90.41 11.2718 90.2467 11.2718 90.04C11.2718 89.8667 11.2118 89.7233 11.0918 89.61C10.9785 89.4967 10.8351 89.4033 10.6618 89.33C10.4951 89.2567 10.2551 89.1733 9.9418 89.08C9.48846 88.94 9.11846 88.8 8.8318 88.66C8.54513 88.52 8.29846 88.3133 8.0918 88.04C7.88513 87.7667 7.7818 87.41 7.7818 86.97C7.7818 86.3167 8.01846 85.8067 8.4918 85.44C8.96513 85.0667 9.5818 84.88 10.3418 84.88C11.1151 84.88 11.7385 85.0667 12.2118 85.44C12.6851 85.8067 12.9385 86.32 12.9718 86.98H11.1218C11.1085 86.7533 11.0251 86.5767 10.8718 86.45C10.7185 86.3167 10.5218 86.25 10.2818 86.25C10.0751 86.25 9.90846 86.3067 9.7818 86.42C9.65513 86.5267 9.5918 86.6833 9.5918 86.89C9.5918 87.1167 9.69846 87.2933 9.9118 87.42C10.1251 87.5467 10.4585 87.6833 10.9118 87.83C11.3651 87.9833 11.7318 88.13 12.0118 88.27C12.2985 88.41 12.5451 88.6133 12.7518 88.88C12.9585 89.1467 13.0618 89.49 13.0618 89.91C13.0618 90.31 12.9585 90.6733 12.7518 91C12.5518 91.3267 12.2585 91.5867 11.8718 91.78C11.4851 91.9733 11.0285 92.07 10.5018 92.07ZM19.4641 87.24C19.4641 87.6467 19.3708 88.02 19.1841 88.36C18.9975 88.6933 18.7108 88.9633 18.3241 89.17C17.9375 89.3767 17.4575 89.48 16.8841 89.48H15.8241V92H14.1141V84.98H16.8841C17.4441 84.98 17.9175 85.0767 18.3041 85.27C18.6908 85.4633 18.9808 85.73 19.1741 86.07C19.3675 86.41 19.4641 86.8 19.4641 87.24ZM16.7541 88.12C17.0808 88.12 17.3241 88.0433 17.4841 87.89C17.6441 87.7367 17.7241 87.52 17.7241 87.24C17.7241 86.96 17.6441 86.7433 17.4841 86.59C17.3241 86.4367 17.0808 86.36 16.7541 86.36H15.8241V88.12H16.7541ZM22.9844 84.98C23.7244 84.98 24.371 85.1267 24.9244 85.42C25.4777 85.7133 25.9044 86.1267 26.2044 86.66C26.511 87.1867 26.6644 87.7967 26.6644 88.49C26.6644 89.1767 26.511 89.7867 26.2044 90.32C25.9044 90.8533 25.4744 91.2667 24.9144 91.56C24.361 91.8533 23.7177 92 22.9844 92H20.3544V84.98H22.9844ZM22.8744 90.52C23.521 90.52 24.0244 90.3433 24.3844 89.99C24.7444 89.6367 24.9244 89.1367 24.9244 88.49C24.9244 87.8433 24.7444 87.34 24.3844 86.98C24.0244 86.62 23.521 86.44 22.8744 86.44H22.0644V90.52H22.8744Z" fill="#74CB48"/>
<rect x="39" width="1" height="96" fill="#E0E0E0"/>
<path d="M52.62 8.31C52.62 7.16333 52.8067 6.27 53.18 5.63C53.5533 4.98333 54.2067 4.66 55.14 4.66C56.0667 4.66 56.7167 4.98333 57.09 5.63C57.4633 6.27 57.65 7.16333 57.65 8.31C57.65 9.47667 57.4633 10.3833 57.09 11.03C56.7167 11.6767 56.0667 12 55.14 12C54.2067 12 53.5533 11.6767 53.18 11.03C52.8067 10.3833 52.62 9.47667 52.62 8.31ZM56.75 8.31C56.75 7.73 56.71 7.24 56.63 6.84C56.5567 6.43333 56.4 6.10667 56.16 5.86C55.9267 5.61333 55.5867 5.49 55.14 5.49C54.6867 5.49 54.34 5.61333 54.1 5.86C53.8667 6.10667 53.71 6.43333 53.63 6.84C53.5567 7.24 53.52 7.73 53.52 8.31C53.52 8.91 53.5567 9.41333 53.63 9.82C53.71 10.2267 53.8667 10.5533 54.1 10.8C54.34 11.0467 54.6867 11.17 55.14 11.17C55.5867 11.17 55.9267 11.0467 56.16 10.8C56.4 10.5533 56.5567 10.2267 56.63 9.82C56.71 9.41333 56.75 8.91 56.75 8.31ZM58.6793 10.39V9.7L62.1893 4.84H63.2793V9.6H64.2793V10.39H63.2793V12H62.3793V10.39H58.6793ZM62.4193 5.79L59.7293 9.6H62.4193V5.79ZM69.7984 5.56H66.2884V7.84C66.4417 7.62667 66.6684 7.45333 66.9684 7.32C67.2684 7.18 67.5917 7.11 67.9384 7.11C68.4917 7.11 68.9417 7.22667 69.2884 7.46C69.635 7.68667 69.8817 7.98333 70.0284 8.35C70.1817 8.71 70.2584 9.09333 70.2584 9.5C70.2584 9.98 70.1684 10.41 69.9884 10.79C69.8084 11.17 69.5317 11.47 69.1584 11.69C68.7917 11.91 68.335 12.02 67.7884 12.02C67.0884 12.02 66.5217 11.84 66.0884 11.48C65.655 11.12 65.3917 10.64 65.2984 10.04H66.1884C66.275 10.42 66.4584 10.7167 66.7384 10.93C67.0184 11.1433 67.3717 11.25 67.7984 11.25C68.325 11.25 68.7217 11.0933 68.9884 10.78C69.255 10.46 69.3884 10.04 69.3884 9.52C69.3884 9 69.255 8.6 68.9884 8.32C68.7217 8.03333 68.3284 7.89 67.8084 7.89C67.455 7.89 67.145 7.97667 66.8784 8.15C66.6184 8.31667 66.4284 8.54667 66.3084 8.84H65.4484V4.76H69.7984V5.56Z" fill="#1D1D1D"/>
<path d="M52.62 24.31C52.62 23.1633 52.8067 22.27 53.18 21.63C53.5533 20.9833 54.2067 20.66 55.14 20.66C56.0667 20.66 56.7167 20.9833 57.09 21.63C57.4633 22.27 57.65 23.1633 57.65 24.31C57.65 25.4767 57.4633 26.3833 57.09 27.03C56.7167 27.6767 56.0667 28 55.14 28C54.2067 28 53.5533 27.6767 53.18 27.03C52.8067 26.3833 52.62 25.4767 52.62 24.31ZM56.75 24.31C56.75 23.73 56.71 23.24 56.63 22.84C56.5567 22.4333 56.4 22.1067 56.16 21.86C55.9267 21.6133 55.5867 21.49 55.14 21.49C54.6867 21.49 54.34 21.6133 54.1 21.86C53.8667 22.1067 53.71 22.4333 53.63 22.84C53.5567 23.24 53.52 23.73 53.52 24.31C53.52 24.91 53.5567 25.4133 53.63 25.82C53.71 26.2267 53.8667 26.5533 54.1 26.8C54.34 27.0467 54.6867 27.17 55.14 27.17C55.5867 27.17 55.9267 27.0467 56.16 26.8C56.4 26.5533 56.5567 26.2267 56.63 25.82C56.71 25.4133 56.75 24.91 56.75 24.31ZM58.6793 26.39V25.7L62.1893 20.84H63.2793V25.6H64.2793V26.39H63.2793V28H62.3793V26.39H58.6793ZM62.4193 21.79L59.7293 25.6H62.4193V21.79ZM66.3584 26.06C66.425 26.44 66.5784 26.7333 66.8184 26.94C67.065 27.1467 67.395 27.25 67.8084 27.25C68.3617 27.25 68.7684 27.0333 69.0284 26.6C69.295 26.1667 69.4217 25.4367 69.4084 24.41C69.2684 24.71 69.035 24.9467 68.7084 25.12C68.3817 25.2867 68.0184 25.37 67.6184 25.37C67.1717 25.37 66.7717 25.28 66.4184 25.1C66.0717 24.9133 65.7984 24.6433 65.5984 24.29C65.3984 23.9367 65.2984 23.51 65.2984 23.01C65.2984 22.2967 65.505 21.7233 65.9184 21.29C66.3317 20.85 66.9184 20.63 67.6784 20.63C68.6117 20.63 69.265 20.9333 69.6384 21.54C70.0184 22.1467 70.2084 23.05 70.2084 24.25C70.2084 25.09 70.1317 25.7833 69.9784 26.33C69.8317 26.8767 69.5784 27.2933 69.2184 27.58C68.865 27.8667 68.3784 28.01 67.7584 28.01C67.0784 28.01 66.5484 27.8267 66.1684 27.46C65.7884 27.0933 65.5717 26.6267 65.5184 26.06H66.3584ZM67.7684 24.6C68.215 24.6 68.5817 24.4633 68.8684 24.19C69.155 23.91 69.2984 23.5333 69.2984 23.06C69.2984 22.56 69.1584 22.1567 68.8784 21.85C68.5984 21.5433 68.205 21.39 67.6984 21.39C67.2317 21.39 66.8584 21.5367 66.5784 21.83C66.305 22.1233 66.1684 22.51 66.1684 22.99C66.1684 23.4767 66.305 23.8667 66.5784 24.16C66.8517 24.4533 67.2484 24.6 67.7684 24.6Z" fill="#1D1D1D"/>
<path d="M52.62 40.31C52.62 39.1633 52.8067 38.27 53.18 37.63C53.5533 36.9833 54.2067 36.66 55.14 36.66C56.0667 36.66 56.7167 36.9833 57.09 37.63C57.4633 38.27 57.65 39.1633 57.65 40.31C57.65 41.4767 57.4633 42.3833 57.09 43.03C56.7167 43.6767 56.0667 44 55.14 44C54.2067 44 53.5533 43.6767 53.18 43.03C52.8067 42.3833 52.62 41.4767 52.62 40.31ZM56.75 40.31C56.75 39.73 56.71 39.24 56.63 38.84C56.5567 38.4333 56.4 38.1067 56.16 37.86C55.9267 37.6133 55.5867 37.49 55.14 37.49C54.6867 37.49 54.34 37.6133 54.1 37.86C53.8667 38.1067 53.71 38.4333 53.63 38.84C53.5567 39.24 53.52 39.73 53.52 40.31C53.52 40.91 53.5567 41.4133 53.63 41.82C53.71 42.2267 53.8667 42.5533 54.1 42.8C54.34 43.0467 54.6867 43.17 55.14 43.17C55.5867 43.17 55.9267 43.0467 56.16 42.8C56.4 42.5533 56.5567 42.2267 56.63 41.82C56.71 41.4133 56.75 40.91 56.75 40.31ZM58.6793 42.39V41.7L62.1893 36.84H63.2793V41.6H64.2793V42.39H63.2793V44H62.3793V42.39H58.6793ZM62.4193 37.79L59.7293 41.6H62.4193V37.79ZM66.3584 42.06C66.425 42.44 66.5784 42.7333 66.8184 42.94C67.065 43.1467 67.395 43.25 67.8084 43.25C68.3617 43.25 68.7684 43.0333 69.0284 42.6C69.295 42.1667 69.4217 41.4367 69.4084 40.41C69.2684 40.71 69.035 40.9467 68.7084 41.12C68.3817 41.2867 68.0184 41.37 67.6184 41.37C67.1717 41.37 66.7717 41.28 66.4184 41.1C66.0717 40.9133 65.7984 40.6433 65.5984 40.29C65.3984 39.9367 65.2984 39.51 65.2984 39.01C65.2984 38.2967 65.505 37.7233 65.9184 37.29C66.3317 36.85 66.9184 36.63 67.6784 36.63C68.6117 36.63 69.265 36.9333 69.6384 37.54C70.0184 38.1467 70.2084 39.05 70.2084 40.25C70.2084 41.09 70.1317 41.7833 69.9784 42.33C69.8317 42.8767 69.5784 43.2933 69.2184 43.58C68.865 43.8667 68.3784 44.01 67.7584 44.01C67.0784 44.01 66.5484 43.8267 66.1684 43.46C65.7884 43.0933 65.5717 42.6267 65.5184 42.06H66.3584ZM67.7684 40.6C68.215 40.6 68.5817 40.4633 68.8684 40.19C69.155 39.91 69.2984 39.5333 69.2984 39.06C69.2984 38.56 69.1584 38.1567 68.8784 37.85C68.5984 37.5433 68.205 37.39 67.6984 37.39C67.2317 37.39 66.8584 37.5367 66.5784 37.83C66.305 38.1233 66.1684 38.51 66.1684 38.99C66.1684 39.4767 66.305 39.8667 66.5784 40.16C66.8517 40.4533 67.2484 40.6 67.7684 40.6Z" fill="#1D1D1D"/>
<path d="M52.62 56.31C52.62 55.1633 52.8067 54.27 53.18 53.63C53.5533 52.9833 54.2067 52.66 55.14 52.66C56.0667 52.66 56.7167 52.9833 57.09 53.63C57.4633 54.27 57.65 55.1633 57.65 56.31C57.65 57.4767 57.4633 58.3833 57.09 59.03C56.7167 59.6767 56.0667 60 55.14 60C54.2067 60 53.5533 59.6767 53.18 59.03C52.8067 58.3833 52.62 57.4767 52.62 56.31ZM56.75 56.31C56.75 55.73 56.71 55.24 56.63 54.84C56.5567 54.4333 56.4 54.1067 56.16 53.86C55.9267 53.6133 55.5867 53.49 55.14 53.49C54.6867 53.49 54.34 53.6133 54.1 53.86C53.8667 54.1067 53.71 54.4333 53.63 54.84C53.5567 55.24 53.52 55.73 53.52 56.31C53.52 56.91 53.5567 57.4133 53.63 57.82C53.71 58.2267 53.8667 58.5533 54.1 58.8C54.34 59.0467 54.6867 59.17 55.14 59.17C55.5867 59.17 55.9267 59.0467 56.16 58.8C56.4 58.5533 56.5567 58.2267 56.63 57.82C56.71 57.4133 56.75 56.91 56.75 56.31ZM62.9293 54.49C62.7826 53.75 62.326 53.38 61.5593 53.38C60.966 53.38 60.5226 53.61 60.2293 54.07C59.936 54.5233 59.7926 55.2733 59.7993 56.32C59.9526 55.9733 60.206 55.7033 60.5593 55.51C60.9193 55.31 61.3193 55.21 61.7593 55.21C62.446 55.21 62.9926 55.4233 63.3993 55.85C63.8126 56.2767 64.0193 56.8667 64.0193 57.62C64.0193 58.0733 63.9293 58.48 63.7493 58.84C63.576 59.2 63.3093 59.4867 62.9493 59.7C62.596 59.9133 62.166 60.02 61.6593 60.02C60.9726 60.02 60.436 59.8667 60.0493 59.56C59.6626 59.2533 59.3926 58.83 59.2393 58.29C59.086 57.75 59.0093 57.0833 59.0093 56.29C59.0093 53.8433 59.8626 52.62 61.5693 52.62C62.2226 52.62 62.736 52.7967 63.1093 53.15C63.4826 53.5033 63.7026 53.95 63.7693 54.49H62.9293ZM61.5693 55.98C61.2826 55.98 61.0126 56.04 60.7593 56.16C60.506 56.2733 60.2993 56.45 60.1393 56.69C59.986 56.9233 59.9093 57.21 59.9093 57.55C59.9093 58.0567 60.056 58.47 60.3493 58.79C60.6426 59.1033 61.0626 59.26 61.6093 59.26C62.076 59.26 62.446 59.1167 62.7193 58.83C62.9993 58.5367 63.1393 58.1433 63.1393 57.65C63.1393 57.13 63.006 56.7233 62.7393 56.43C62.4726 56.13 62.0826 55.98 61.5693 55.98ZM69.857 53.56H66.347V55.84C66.5003 55.6267 66.727 55.4533 67.027 55.32C67.327 55.18 67.6503 55.11 67.997 55.11C68.5503 55.11 69.0003 55.2267 69.347 55.46C69.6936 55.6867 69.9403 55.9833 70.087 56.35C70.2403 56.71 70.317 57.0933 70.317 57.5C70.317 57.98 70.227 58.41 70.047 58.79C69.867 59.17 69.5903 59.47 69.217 59.69C68.8503 59.91 68.3936 60.02 67.847 60.02C67.147 60.02 66.5803 59.84 66.147 59.48C65.7136 59.12 65.4503 58.64 65.357 58.04H66.247C66.3336 58.42 66.517 58.7167 66.797 58.93C67.077 59.1433 67.4303 59.25 67.857 59.25C68.3836 59.25 68.7803 59.0933 69.047 58.78C69.3136 58.46 69.447 58.04 69.447 57.52C69.447 57 69.3136 56.6 69.047 56.32C68.7803 56.0333 68.387 55.89 67.867 55.89C67.5136 55.89 67.2036 55.9767 66.937 56.15C66.677 56.3167 66.487 56.5467 66.367 56.84H65.507V52.76H69.857V53.56Z" fill="#1D1D1D"/>
<path d="M52.62 72.31C52.62 71.1633 52.8067 70.27 53.18 69.63C53.5533 68.9833 54.2067 68.66 55.14 68.66C56.0667 68.66 56.7167 68.9833 57.09 69.63C57.4633 70.27 57.65 71.1633 57.65 72.31C57.65 73.4767 57.4633 74.3833 57.09 75.03C56.7167 75.6767 56.0667 76 55.14 76C54.2067 76 53.5533 75.6767 53.18 75.03C52.8067 74.3833 52.62 73.4767 52.62 72.31ZM56.75 72.31C56.75 71.73 56.71 71.24 56.63 70.84C56.5567 70.4333 56.4 70.1067 56.16 69.86C55.9267 69.6133 55.5867 69.49 55.14 69.49C54.6867 69.49 54.34 69.6133 54.1 69.86C53.8667 70.1067 53.71 70.4333 53.63 70.84C53.5567 71.24 53.52 71.73 53.52 72.31C53.52 72.91 53.5567 73.4133 53.63 73.82C53.71 74.2267 53.8667 74.5533 54.1 74.8C54.34 75.0467 54.6867 75.17 55.14 75.17C55.5867 75.17 55.9267 75.0467 56.16 74.8C56.4 74.5533 56.5567 74.2267 56.63 73.82C56.71 73.4133 56.75 72.91 56.75 72.31ZM62.9293 70.49C62.7826 69.75 62.326 69.38 61.5593 69.38C60.966 69.38 60.5226 69.61 60.2293 70.07C59.936 70.5233 59.7926 71.2733 59.7993 72.32C59.9526 71.9733 60.206 71.7033 60.5593 71.51C60.9193 71.31 61.3193 71.21 61.7593 71.21C62.446 71.21 62.9926 71.4233 63.3993 71.85C63.8126 72.2767 64.0193 72.8667 64.0193 73.62C64.0193 74.0733 63.9293 74.48 63.7493 74.84C63.576 75.2 63.3093 75.4867 62.9493 75.7C62.596 75.9133 62.166 76.02 61.6593 76.02C60.9726 76.02 60.436 75.8667 60.0493 75.56C59.6626 75.2533 59.3926 74.83 59.2393 74.29C59.086 73.75 59.0093 73.0833 59.0093 72.29C59.0093 69.8433 59.8626 68.62 61.5693 68.62C62.2226 68.62 62.736 68.7967 63.1093 69.15C63.4826 69.5033 63.7026 69.95 63.7693 70.49H62.9293ZM61.5693 71.98C61.2826 71.98 61.0126 72.04 60.7593 72.16C60.506 72.2733 60.2993 72.45 60.1393 72.69C59.986 72.9233 59.9093 73.21 59.9093 73.55C59.9093 74.0567 60.056 74.47 60.3493 74.79C60.6426 75.1033 61.0626 75.26 61.6093 75.26C62.076 75.26 62.446 75.1167 62.7193 74.83C62.9993 74.5367 63.1393 74.1433 63.1393 73.65C63.1393 73.13 63.006 72.7233 62.7393 72.43C62.4726 72.13 62.0826 71.98 61.5693 71.98ZM69.857 69.56H66.347V71.84C66.5003 71.6267 66.727 71.4533 67.027 71.32C67.327 71.18 67.6503 71.11 67.997 71.11C68.5503 71.11 69.0003 71.2267 69.347 71.46C69.6936 71.6867 69.9403 71.9833 70.087 72.35C70.2403 72.71 70.317 73.0933 70.317 73.5C70.317 73.98 70.227 74.41 70.047 74.79C69.867 75.17 69.5903 75.47 69.217 75.69C68.8503 75.91 68.3936 76.02 67.847 76.02C67.147 76.02 66.5803 75.84 66.147 75.48C65.7136 75.12 65.4503 74.64 65.357 74.04H66.247C66.3336 74.42 66.517 74.7167 66.797 74.93C67.077 75.1433 67.4303 75.25 67.857 75.25C68.3836 75.25 68.7803 75.0933 69.047 74.78C69.3136 74.46 69.447 74.04 69.447 73.52C69.447 73 69.3136 72.6 69.047 72.32C68.7803 72.0333 68.387 71.89 67.867 71.89C67.5136 71.89 67.2036 71.9767 66.937 72.15C66.677 72.3167 66.487 72.5467 66.367 72.84H65.507V68.76H69.857V69.56Z" fill="#1D1D1D"/>
<path d="M52.62 88.31C52.62 87.1633 52.8067 86.27 53.18 85.63C53.5533 84.9833 54.2067 84.66 55.14 84.66C56.0667 84.66 56.7167 84.9833 57.09 85.63C57.4633 86.27 57.65 87.1633 57.65 88.31C57.65 89.4767 57.4633 90.3833 57.09 91.03C56.7167 91.6767 56.0667 92 55.14 92C54.2067 92 53.5533 91.6767 53.18 91.03C52.8067 90.3833 52.62 89.4767 52.62 88.31ZM56.75 88.31C56.75 87.73 56.71 87.24 56.63 86.84C56.5567 86.4333 56.4 86.1067 56.16 85.86C55.9267 85.6133 55.5867 85.49 55.14 85.49C54.6867 85.49 54.34 85.6133 54.1 85.86C53.8667 86.1067 53.71 86.4333 53.63 86.84C53.5567 87.24 53.52 87.73 53.52 88.31C53.52 88.91 53.5567 89.4133 53.63 89.82C53.71 90.2267 53.8667 90.5533 54.1 90.8C54.34 91.0467 54.6867 91.17 55.14 91.17C55.5867 91.17 55.9267 91.0467 56.16 90.8C56.4 90.5533 56.5567 90.2267 56.63 89.82C56.71 89.4133 56.75 88.91 56.75 88.31ZM58.6793 90.39V89.7L62.1893 84.84H63.2793V89.6H64.2793V90.39H63.2793V92H62.3793V90.39H58.6793ZM62.4193 85.79L59.7293 89.6H62.4193V85.79ZM69.7984 85.56H66.2884V87.84C66.4417 87.6267 66.6684 87.4533 66.9684 87.32C67.2684 87.18 67.5917 87.11 67.9384 87.11C68.4917 87.11 68.9417 87.2267 69.2884 87.46C69.635 87.6867 69.8817 87.9833 70.0284 88.35C70.1817 88.71 70.2584 89.0933 70.2584 89.5C70.2584 89.98 70.1684 90.41 69.9884 90.79C69.8084 91.17 69.5317 91.47 69.1584 91.69C68.7917 91.91 68.335 92.02 67.7884 92.02C67.0884 92.02 66.5217 91.84 66.0884 91.48C65.655 91.12 65.3917 90.64 65.2984 90.04H66.1884C66.275 90.42 66.4584 90.7167 66.7384 90.93C67.0184 91.1433 67.3717 91.25 67.7984 91.25C68.325 91.25 68.7217 91.0933 68.9884 90.78C69.255 90.46 69.3884 90.04 69.3884 89.52C69.3884 89 69.255 88.6 68.9884 88.32C68.7217 88.0333 68.3284 87.89 67.8084 87.89C67.455 87.89 67.145 87.9767 66.8784 88.15C66.6184 88.3167 66.4284 88.5467 66.3084 88.84H65.4484V84.76H69.7984V85.56Z" fill="#1D1D1D"/>
<g clip-path="url(#clip1_1419_146)">
<rect x="79" y="6" width="45" height="4" fill="#74CB48"/>
<rect opacity="0.2" x="79" y="6" width="233" height="4" rx="2" fill="#74CB48"/>
<rect x="79" y="22" width="49" height="4" fill="#74CB48"/>
<rect opacity="0.2" x="79" y="22" width="233" height="4" rx="2" fill="#74CB48"/>
<rect x="79" y="38" width="49" height="4" fill="#74CB48"/>
<rect opacity="0.2" x="79" y="38" width="233" height="4" rx="2" fill="#74CB48"/>
<rect x="79" y="54" width="65" height="4" fill="#74CB48"/>
<rect opacity="0.2" x="79" y="54" width="233" height="4" rx="2" fill="#74CB48"/>
<rect x="79" y="70" width="65" height="4" fill="#74CB48"/>
<rect opacity="0.2" x="79" y="70" width="233" height="4" rx="2" fill="#74CB48"/>
<rect x="79" y="86" width="45" height="4" fill="#74CB48"/>
<rect opacity="0.2" x="79" y="86" width="233" height="4" rx="2" fill="#74CB48"/>
</g>
</g>
<defs>
<clipPath id="clip0_1419_146">
<rect width="312" height="96" fill="white"/>
</clipPath>
<clipPath id="clip1_1419_146">
<rect width="233" height="96" fill="white" transform="translate(79)"/>
</clipPath>
</defs>
</svg>
