<svg width="312" height="48" viewBox="0 0 312 48" fill="none" xmlns="http://www.w3.org/2000/svg">
<g clip-path="url(#clip0_1419_125)">
<rect width="312" height="48" fill="white"/>
<path d="M28.2833 21.0001H37.05L36 13.6667H29.3333L28.2833 21.0001ZM32.6667 12.6667C32.9556 12.6667 33.1944 12.5695 33.3833 12.3751C33.5722 12.1806 33.6667 11.9445 33.6667 11.6667C33.6667 11.3779 33.5722 11.139 33.3833 10.9501C33.1944 10.7612 32.9556 10.6667 32.6667 10.6667C32.3889 10.6667 32.1528 10.7612 31.9583 10.9501C31.7639 11.139 31.6667 11.3779 31.6667 11.6667C31.6667 11.9445 31.7639 12.1806 31.9583 12.3751C32.1528 12.5695 32.3889 12.6667 32.6667 12.6667ZM34.4 12.6667H36C36.2556 12.6667 36.4778 12.7473 36.6667 12.9084C36.8556 13.0695 36.9667 13.2779 37 13.5334L38.0333 20.8667C38.0778 21.1667 38.0028 21.4306 37.8083 21.6584C37.6139 21.8862 37.3611 22.0001 37.05 22.0001H28.2833C27.9722 22.0001 27.7194 21.8862 27.525 21.6584C27.3306 21.4306 27.2556 21.1667 27.3 20.8667L28.3333 13.5334C28.3667 13.2779 28.4778 13.0695 28.6667 12.9084C28.8556 12.7473 29.0778 12.6667 29.3333 12.6667H30.9333C30.8444 12.5112 30.7778 12.3529 30.7333 12.1917C30.6889 12.0306 30.6667 11.8556 30.6667 11.6667C30.6667 11.1112 30.8611 10.639 31.25 10.2501C31.6389 9.86119 32.1111 9.66675 32.6667 9.66675C33.2222 9.66675 33.6944 9.86119 34.0833 10.2501C34.4722 10.639 34.6667 11.1112 34.6667 11.6667C34.6667 11.8556 34.6444 12.0306 34.6 12.1917C34.5556 12.3529 34.4889 12.5112 34.4 12.6667ZM28.2833 21.0001H37.05H28.2833Z" fill="#1D1D1D"/>
<path d="M53.3167 14.49C53.1701 13.75 52.7134 13.38 51.9467 13.38C51.3534 13.38 50.9101 13.61 50.6167 14.07C50.3234 14.5233 50.1801 15.2733 50.1867 16.32C50.3401 15.9733 50.5934 15.7033 50.9467 15.51C51.3067 15.31 51.7067 15.21 52.1467 15.21C52.8334 15.21 53.3801 15.4233 53.7867 15.85C54.2001 16.2767 54.4067 16.8667 54.4067 17.62C54.4067 18.0733 54.3167 18.48 54.1367 18.84C53.9634 19.2 53.6967 19.4867 53.3367 19.7C52.9834 19.9133 52.5534 20.02 52.0467 20.02C51.3601 20.02 50.8234 19.8667 50.4367 19.56C50.0501 19.2533 49.7801 18.83 49.6267 18.29C49.4734 17.75 49.3967 17.0833 49.3967 16.29C49.3967 13.8433 50.2501 12.62 51.9567 12.62C52.6101 12.62 53.1234 12.7967 53.4967 13.15C53.8701 13.5033 54.0901 13.95 54.1567 14.49H53.3167ZM51.9567 15.98C51.6701 15.98 51.4001 16.04 51.1467 16.16C50.8934 16.2733 50.6867 16.45 50.5267 16.69C50.3734 16.9233 50.2967 17.21 50.2967 17.55C50.2967 18.0567 50.4434 18.47 50.7367 18.79C51.0301 19.1033 51.4501 19.26 51.9967 19.26C52.4634 19.26 52.8334 19.1167 53.1067 18.83C53.3867 18.5367 53.5267 18.1433 53.5267 17.65C53.5267 17.13 53.3934 16.7233 53.1267 16.43C52.8601 16.13 52.4701 15.98 51.9567 15.98ZM56.7244 18.74L55.6044 21.43H54.9944L55.7244 18.74H56.7244ZM58.7868 18.06C58.8535 18.44 59.0068 18.7333 59.2468 18.94C59.4935 19.1467 59.8235 19.25 60.2368 19.25C60.7902 19.25 61.1968 19.0333 61.4568 18.6C61.7235 18.1667 61.8502 17.4367 61.8368 16.41C61.6968 16.71 61.4635 16.9467 61.1368 17.12C60.8102 17.2867 60.4468 17.37 60.0468 17.37C59.6002 17.37 59.2002 17.28 58.8468 17.1C58.5002 16.9133 58.2268 16.6433 58.0268 16.29C57.8268 15.9367 57.7268 15.51 57.7268 15.01C57.7268 14.2967 57.9335 13.7233 58.3468 13.29C58.7602 12.85 59.3468 12.63 60.1068 12.63C61.0402 12.63 61.6935 12.9333 62.0668 13.54C62.4468 14.1467 62.6368 15.05 62.6368 16.25C62.6368 17.09 62.5602 17.7833 62.4068 18.33C62.2602 18.8767 62.0068 19.2933 61.6468 19.58C61.2935 19.8667 60.8068 20.01 60.1868 20.01C59.5068 20.01 58.9768 19.8267 58.5968 19.46C58.2168 19.0933 58.0002 18.6267 57.9468 18.06H58.7868ZM60.1968 16.6C60.6435 16.6 61.0102 16.4633 61.2968 16.19C61.5835 15.91 61.7268 15.5333 61.7268 15.06C61.7268 14.56 61.5868 14.1567 61.3068 13.85C61.0268 13.5433 60.6335 13.39 60.1268 13.39C59.6602 13.39 59.2868 13.5367 59.0068 13.83C58.7335 14.1233 58.5968 14.51 58.5968 14.99C58.5968 15.4767 58.7335 15.8667 59.0068 16.16C59.2802 16.4533 59.6768 16.6 60.1968 16.6ZM69.7917 20L67.6417 17.58V20H66.7317V12.6H67.6417V16.95L69.7517 14.52H71.0217L68.4417 17.25L71.0317 20H69.7917ZM74.1382 14.43C74.6115 14.43 75.0248 14.5333 75.3782 14.74C75.7382 14.9467 76.0048 15.2067 76.1782 15.52V14.52H77.0982V20.12C77.0982 20.62 76.9915 21.0633 76.7782 21.45C76.5648 21.8433 76.2582 22.15 75.8582 22.37C75.4648 22.59 75.0048 22.7 74.4782 22.7C73.7582 22.7 73.1582 22.53 72.6782 22.19C72.1982 21.85 71.9148 21.3867 71.8282 20.8H72.7282C72.8282 21.1333 73.0348 21.4 73.3482 21.6C73.6615 21.8067 74.0382 21.91 74.4782 21.91C74.9782 21.91 75.3848 21.7533 75.6982 21.44C76.0182 21.1267 76.1782 20.6867 76.1782 20.12V18.97C75.9982 19.29 75.7315 19.5567 75.3782 19.77C75.0248 19.9833 74.6115 20.09 74.1382 20.09C73.6515 20.09 73.2082 19.97 72.8082 19.73C72.4148 19.49 72.1048 19.1533 71.8782 18.72C71.6515 18.2867 71.5382 17.7933 71.5382 17.24C71.5382 16.68 71.6515 16.19 71.8782 15.77C72.1048 15.3433 72.4148 15.0133 72.8082 14.78C73.2082 14.5467 73.6515 14.43 74.1382 14.43ZM76.1782 17.25C76.1782 16.8367 76.0948 16.4767 75.9282 16.17C75.7615 15.8633 75.5348 15.63 75.2482 15.47C74.9682 15.3033 74.6582 15.22 74.3182 15.22C73.9782 15.22 73.6682 15.3 73.3882 15.46C73.1082 15.62 72.8848 15.8533 72.7182 16.16C72.5515 16.4667 72.4682 16.8267 72.4682 17.24C72.4682 17.66 72.5515 18.0267 72.7182 18.34C72.8848 18.6467 73.1082 18.8833 73.3882 19.05C73.6682 19.21 73.9782 19.29 74.3182 19.29C74.6582 19.29 74.9682 19.21 75.2482 19.05C75.5348 18.8833 75.7615 18.6467 75.9282 18.34C76.0948 18.0267 76.1782 17.6633 76.1782 17.25Z" fill="#1D1D1D"/>
<path d="M45.2047 39.424L43.5887 45H42.7727L41.4767 40.512L40.1327 45L39.3247 45.008L37.7647 39.424H38.5407L39.7567 44.152L41.1007 39.424H41.9167L43.1967 44.136L44.4207 39.424H45.2047ZM50.0014 42.64C50.0014 42.7787 49.9934 42.9253 49.9774 43.08H46.4734C46.5001 43.512 46.6468 43.8507 46.9134 44.096C47.1854 44.336 47.5134 44.456 47.8974 44.456C48.2121 44.456 48.4734 44.384 48.6814 44.24C48.8948 44.0907 49.0441 43.8933 49.1294 43.648H49.9134C49.7961 44.0693 49.5614 44.4133 49.2094 44.68C48.8574 44.9413 48.4201 45.072 47.8974 45.072C47.4814 45.072 47.1081 44.9787 46.7774 44.792C46.4521 44.6053 46.1961 44.3413 46.0094 44C45.8228 43.6533 45.7294 43.2533 45.7294 42.8C45.7294 42.3467 45.8201 41.9493 46.0014 41.608C46.1828 41.2667 46.4361 41.0053 46.7614 40.824C47.0921 40.6373 47.4708 40.544 47.8974 40.544C48.3134 40.544 48.6814 40.6347 49.0014 40.816C49.3214 40.9973 49.5668 41.248 49.7374 41.568C49.9134 41.8827 50.0014 42.24 50.0014 42.64ZM49.2494 42.488C49.2494 42.2107 49.1881 41.9733 49.0654 41.776C48.9428 41.5733 48.7748 41.4213 48.5614 41.32C48.3534 41.2133 48.1214 41.16 47.8654 41.16C47.4974 41.16 47.1828 41.2773 46.9214 41.512C46.6654 41.7467 46.5188 42.072 46.4814 42.488H49.2494ZM51.3384 39.904C51.1997 39.904 51.0824 39.856 50.9864 39.76C50.8904 39.664 50.8424 39.5467 50.8424 39.408C50.8424 39.2693 50.8904 39.152 50.9864 39.056C51.0824 38.96 51.1997 38.912 51.3384 38.912C51.4717 38.912 51.5837 38.96 51.6744 39.056C51.7704 39.152 51.8184 39.2693 51.8184 39.408C51.8184 39.5467 51.7704 39.664 51.6744 39.76C51.5837 39.856 51.4717 39.904 51.3384 39.904ZM51.6904 40.616V45H50.9624V40.616H51.6904ZM54.7391 40.544C55.1178 40.544 55.4484 40.6267 55.7311 40.792C56.0191 40.9573 56.2324 41.1653 56.3711 41.416V40.616H57.1071V45.096C57.1071 45.496 57.0218 45.8507 56.8511 46.16C56.6804 46.4747 56.4351 46.72 56.1151 46.896C55.8004 47.072 55.4324 47.16 55.0111 47.16C54.4351 47.16 53.9551 47.024 53.5711 46.752C53.1871 46.48 52.9604 46.1093 52.8911 45.64H53.6111C53.6911 45.9067 53.8564 46.12 54.1071 46.28C54.3578 46.4453 54.6591 46.528 55.0111 46.528C55.4111 46.528 55.7364 46.4027 55.9871 46.152C56.2431 45.9013 56.3711 45.5493 56.3711 45.096V44.176C56.2271 44.432 56.0138 44.6453 55.7311 44.816C55.4484 44.9867 55.1178 45.072 54.7391 45.072C54.3498 45.072 53.9951 44.976 53.6751 44.784C53.3604 44.592 53.1124 44.3227 52.9311 43.976C52.7498 43.6293 52.6591 43.2347 52.6591 42.792C52.6591 42.344 52.7498 41.952 52.9311 41.616C53.1124 41.2747 53.3604 41.0107 53.6751 40.824C53.9951 40.6373 54.3498 40.544 54.7391 40.544ZM56.3711 42.8C56.3711 42.4693 56.3044 42.1813 56.1711 41.936C56.0378 41.6907 55.8564 41.504 55.6271 41.376C55.4031 41.2427 55.1551 41.176 54.8831 41.176C54.6111 41.176 54.3631 41.24 54.1391 41.368C53.9151 41.496 53.7364 41.6827 53.6031 41.928C53.4698 42.1733 53.4031 42.4613 53.4031 42.792C53.4031 43.128 53.4698 43.4213 53.6031 43.672C53.7364 43.9173 53.9151 44.1067 54.1391 44.24C54.3631 44.368 54.6111 44.432 54.8831 44.432C55.1551 44.432 55.4031 44.368 55.6271 44.24C55.8564 44.1067 56.0378 43.9173 56.1711 43.672C56.3044 43.4213 56.3711 43.1307 56.3711 42.8ZM60.5134 40.536C60.844 40.536 61.1427 40.608 61.4094 40.752C61.676 40.8907 61.884 41.1013 62.0334 41.384C62.188 41.6667 62.2654 42.0107 62.2654 42.416V45H61.5454V42.52C61.5454 42.0827 61.436 41.7493 61.2174 41.52C60.9987 41.2853 60.7 41.168 60.3214 41.168C59.9374 41.168 59.6307 41.288 59.4014 41.528C59.1774 41.768 59.0654 42.1173 59.0654 42.576V45H58.3374V39.08H59.0654V41.24C59.2094 41.016 59.4067 40.8427 59.6574 40.72C59.9134 40.5973 60.1987 40.536 60.5134 40.536ZM64.3425 41.216V43.8C64.3425 44.0133 64.3879 44.1653 64.4785 44.256C64.5692 44.3413 64.7265 44.384 64.9505 44.384H65.4865V45H64.8305C64.4252 45 64.1212 44.9067 63.9185 44.72C63.7159 44.5333 63.6145 44.2267 63.6145 43.8V41.216H63.0465V40.616H63.6145V39.512H64.3425V40.616H65.4865V41.216H64.3425Z" fill="#666666"/>
<rect x="103.333" width="1" height="48" fill="#E0E0E0"/>
<path d="M134.5 10.3333C134.5 10.0666 134.6 9.83325 134.8 9.63325C135 9.43325 135.233 9.33325 135.5 9.33325H141.5C141.756 9.33325 141.986 9.43325 142.192 9.63325C142.397 9.83325 142.5 10.0666 142.5 10.3333V21.6666C142.5 21.9333 142.397 22.1666 142.192 22.3666C141.986 22.5666 141.756 22.6666 141.5 22.6666H135.5C135.233 22.6666 135 22.5666 134.8 22.3666C134.6 22.1666 134.5 21.9333 134.5 21.6666V10.3333ZM135.5 10.3333V21.6666H141.5V19.4999H138.5V18.4999H141.5V16.4999H138.5V15.4999H141.5V13.4999H138.5V12.4999H141.5V10.3333H135.5ZM138.5 12.4999V13.4999V12.4999ZM138.5 15.4999V16.4999V15.4999ZM138.5 18.4999V19.4999V18.4999Z" fill="#1D1D1D"/>
<path d="M155.12 16.31C155.12 15.1633 155.307 14.27 155.68 13.63C156.053 12.9833 156.707 12.66 157.64 12.66C158.567 12.66 159.217 12.9833 159.59 13.63C159.963 14.27 160.15 15.1633 160.15 16.31C160.15 17.4767 159.963 18.3833 159.59 19.03C159.217 19.6767 158.567 20 157.64 20C156.707 20 156.053 19.6767 155.68 19.03C155.307 18.3833 155.12 17.4767 155.12 16.31ZM159.25 16.31C159.25 15.73 159.21 15.24 159.13 14.84C159.057 14.4333 158.9 14.1067 158.66 13.86C158.427 13.6133 158.087 13.49 157.64 13.49C157.187 13.49 156.84 13.6133 156.6 13.86C156.367 14.1067 156.21 14.4333 156.13 14.84C156.057 15.24 156.02 15.73 156.02 16.31C156.02 16.91 156.057 17.4133 156.13 17.82C156.21 18.2267 156.367 18.5533 156.6 18.8C156.84 19.0467 157.187 19.17 157.64 19.17C158.087 19.17 158.427 19.0467 158.66 18.8C158.9 18.5533 159.057 18.2267 159.13 17.82C159.21 17.4133 159.25 16.91 159.25 16.31ZM162.489 18.74L161.369 21.43H160.759L161.489 18.74H162.489ZM167.832 13.48L165.052 20H164.132L166.952 13.57H163.092V12.79H167.832V13.48ZM178.247 14.42C178.673 14.42 179.053 14.51 179.387 14.69C179.72 14.8633 179.983 15.1267 180.177 15.48C180.37 15.8333 180.467 16.2633 180.467 16.77V20H179.567V16.9C179.567 16.3533 179.43 15.9367 179.157 15.65C178.89 15.3567 178.527 15.21 178.067 15.21C177.593 15.21 177.217 15.3633 176.937 15.67C176.657 15.97 176.517 16.4067 176.517 16.98V20H175.617V16.9C175.617 16.3533 175.48 15.9367 175.207 15.65C174.94 15.3567 174.577 15.21 174.117 15.21C173.643 15.21 173.267 15.3633 172.987 15.67C172.707 15.97 172.567 16.4067 172.567 16.98V20H171.657V14.52H172.567V15.31C172.747 15.0233 172.987 14.8033 173.287 14.65C173.593 14.4967 173.93 14.42 174.297 14.42C174.757 14.42 175.163 14.5233 175.517 14.73C175.87 14.9367 176.133 15.24 176.307 15.64C176.46 15.2533 176.713 14.9533 177.067 14.74C177.42 14.5267 177.813 14.42 178.247 14.42Z" fill="#1D1D1D"/>
<path d="M147.959 39.424V45H147.231V42.472H144.391V45H143.663V39.424H144.391V41.872H147.231V39.424H147.959ZM153.202 42.64C153.202 42.7787 153.194 42.9253 153.178 43.08H149.674C149.701 43.512 149.847 43.8507 150.114 44.096C150.386 44.336 150.714 44.456 151.098 44.456C151.413 44.456 151.674 44.384 151.882 44.24C152.095 44.0907 152.245 43.8933 152.33 43.648H153.114C152.997 44.0693 152.762 44.4133 152.41 44.68C152.058 44.9413 151.621 45.072 151.098 45.072C150.682 45.072 150.309 44.9787 149.978 44.792C149.653 44.6053 149.397 44.3413 149.21 44C149.023 43.6533 148.93 43.2533 148.93 42.8C148.93 42.3467 149.021 41.9493 149.202 41.608C149.383 41.2667 149.637 41.0053 149.962 40.824C150.293 40.6373 150.671 40.544 151.098 40.544C151.514 40.544 151.882 40.6347 152.202 40.816C152.522 40.9973 152.767 41.248 152.938 41.568C153.114 41.8827 153.202 42.24 153.202 42.64ZM152.45 42.488C152.45 42.2107 152.389 41.9733 152.266 41.776C152.143 41.5733 151.975 41.4213 151.762 41.32C151.554 41.2133 151.322 41.16 151.066 41.16C150.698 41.16 150.383 41.2773 150.122 41.512C149.866 41.7467 149.719 42.072 149.682 42.488H152.45ZM154.539 39.904C154.4 39.904 154.283 39.856 154.187 39.76C154.091 39.664 154.043 39.5467 154.043 39.408C154.043 39.2693 154.091 39.152 154.187 39.056C154.283 38.96 154.4 38.912 154.539 38.912C154.672 38.912 154.784 38.96 154.875 39.056C154.971 39.152 155.019 39.2693 155.019 39.408C155.019 39.5467 154.971 39.664 154.875 39.76C154.784 39.856 154.672 39.904 154.539 39.904ZM154.891 40.616V45H154.163V40.616H154.891ZM157.94 40.544C158.318 40.544 158.649 40.6267 158.932 40.792C159.22 40.9573 159.433 41.1653 159.572 41.416V40.616H160.308V45.096C160.308 45.496 160.222 45.8507 160.052 46.16C159.881 46.4747 159.636 46.72 159.316 46.896C159.001 47.072 158.633 47.16 158.212 47.16C157.636 47.16 157.156 47.024 156.772 46.752C156.388 46.48 156.161 46.1093 156.092 45.64H156.812C156.892 45.9067 157.057 46.12 157.308 46.28C157.558 46.4453 157.86 46.528 158.212 46.528C158.612 46.528 158.937 46.4027 159.188 46.152C159.444 45.9013 159.572 45.5493 159.572 45.096V44.176C159.428 44.432 159.214 44.6453 158.932 44.816C158.649 44.9867 158.318 45.072 157.94 45.072C157.55 45.072 157.196 44.976 156.876 44.784C156.561 44.592 156.313 44.3227 156.132 43.976C155.95 43.6293 155.86 43.2347 155.86 42.792C155.86 42.344 155.95 41.952 156.132 41.616C156.313 41.2747 156.561 41.0107 156.876 40.824C157.196 40.6373 157.55 40.544 157.94 40.544ZM159.572 42.8C159.572 42.4693 159.505 42.1813 159.372 41.936C159.238 41.6907 159.057 41.504 158.828 41.376C158.604 41.2427 158.356 41.176 158.084 41.176C157.812 41.176 157.564 41.24 157.34 41.368C157.116 41.496 156.937 41.6827 156.804 41.928C156.67 42.1733 156.604 42.4613 156.604 42.792C156.604 43.128 156.67 43.4213 156.804 43.672C156.937 43.9173 157.116 44.1067 157.34 44.24C157.564 44.368 157.812 44.432 158.084 44.432C158.356 44.432 158.604 44.368 158.828 44.24C159.057 44.1067 159.238 43.9173 159.372 43.672C159.505 43.4213 159.572 43.1307 159.572 42.8ZM163.714 40.536C164.044 40.536 164.343 40.608 164.61 40.752C164.876 40.8907 165.084 41.1013 165.234 41.384C165.388 41.6667 165.466 42.0107 165.466 42.416V45H164.746V42.52C164.746 42.0827 164.636 41.7493 164.418 41.52C164.199 41.2853 163.9 41.168 163.522 41.168C163.138 41.168 162.831 41.288 162.602 41.528C162.378 41.768 162.266 42.1173 162.266 42.576V45H161.538V39.08H162.266V41.24C162.41 41.016 162.607 40.8427 162.858 40.72C163.114 40.5973 163.399 40.536 163.714 40.536ZM167.543 41.216V43.8C167.543 44.0133 167.588 44.1653 167.679 44.256C167.77 44.3413 167.927 44.384 168.151 44.384H168.687V45H168.031C167.626 45 167.322 44.9067 167.119 44.72C166.916 44.5333 166.815 44.2267 166.815 43.8V41.216H166.247V40.616H166.815V39.512H167.543V40.616H168.687V41.216H167.543Z" fill="#666666"/>
<rect x="207.667" width="1" height="48" fill="#E0E0E0"/>
<path d="M232.263 8.51C232.263 7.83 232.417 7.22 232.723 6.68C233.03 6.13333 233.447 5.70667 233.973 5.4C234.507 5.09333 235.097 4.94 235.743 4.94C236.503 4.94 237.167 5.12333 237.733 5.49C238.3 5.85667 238.713 6.37667 238.973 7.05H237.883C237.69 6.63 237.41 6.30667 237.043 6.08C236.683 5.85333 236.25 5.74 235.743 5.74C235.257 5.74 234.82 5.85333 234.433 6.08C234.047 6.30667 233.743 6.63 233.523 7.05C233.303 7.46333 233.193 7.95 233.193 8.51C233.193 9.06333 233.303 9.55 233.523 9.97C233.743 10.3833 234.047 10.7033 234.433 10.93C234.82 11.1567 235.257 11.27 235.743 11.27C236.25 11.27 236.683 11.16 237.043 10.94C237.41 10.7133 237.69 10.39 237.883 9.97H238.973C238.713 10.6367 238.3 11.1533 237.733 11.52C237.167 11.88 236.503 12.06 235.743 12.06C235.097 12.06 234.507 11.91 233.973 11.61C233.447 11.3033 233.03 10.88 232.723 10.34C232.417 9.8 232.263 9.19 232.263 8.51ZM243.048 6.42C243.461 6.42 243.835 6.51 244.168 6.69C244.501 6.86333 244.761 7.12667 244.948 7.48C245.141 7.83333 245.238 8.26333 245.238 8.77V12H244.338V8.9C244.338 8.35333 244.201 7.93667 243.928 7.65C243.655 7.35667 243.281 7.21 242.808 7.21C242.328 7.21 241.945 7.36 241.658 7.66C241.378 7.96 241.238 8.39667 241.238 8.97V12H240.328V4.6H241.238V7.3C241.418 7.02 241.665 6.80333 241.978 6.65C242.298 6.49667 242.655 6.42 243.048 6.42ZM247.635 4.6V12H246.725V4.6H247.635ZM251.576 12.09C251.062 12.09 250.596 11.9733 250.176 11.74C249.762 11.5067 249.436 11.1767 249.196 10.75C248.962 10.3167 248.846 9.81667 248.846 9.25C248.846 8.69 248.966 8.19667 249.206 7.77C249.452 7.33667 249.786 7.00667 250.206 6.78C250.626 6.54667 251.096 6.43 251.616 6.43C252.136 6.43 252.606 6.54667 253.026 6.78C253.446 7.00667 253.776 7.33333 254.016 7.76C254.262 8.18667 254.386 8.68333 254.386 9.25C254.386 9.81667 254.259 10.3167 254.006 10.75C253.759 11.1767 253.422 11.5067 252.996 11.74C252.569 11.9733 252.096 12.09 251.576 12.09ZM251.576 11.29C251.902 11.29 252.209 11.2133 252.496 11.06C252.782 10.9067 253.012 10.6767 253.186 10.37C253.366 10.0633 253.456 9.69 253.456 9.25C253.456 8.81 253.369 8.43667 253.196 8.13C253.022 7.82333 252.796 7.59667 252.516 7.45C252.236 7.29667 251.932 7.22 251.606 7.22C251.272 7.22 250.966 7.29667 250.686 7.45C250.412 7.59667 250.192 7.82333 250.026 8.13C249.859 8.43667 249.776 8.81 249.776 9.25C249.776 9.69667 249.856 10.0733 250.016 10.38C250.182 10.6867 250.402 10.9167 250.676 11.07C250.949 11.2167 251.249 11.29 251.576 11.29ZM256.492 7.41C256.652 7.09667 256.879 6.85333 257.172 6.68C257.472 6.50667 257.835 6.42 258.262 6.42V7.36H258.022C257.002 7.36 256.492 7.91333 256.492 9.02V12H255.582V6.52H256.492V7.41ZM261.702 12.09C261.189 12.09 260.722 11.9733 260.302 11.74C259.889 11.5067 259.562 11.1767 259.322 10.75C259.089 10.3167 258.972 9.81667 258.972 9.25C258.972 8.69 259.092 8.19667 259.332 7.77C259.579 7.33667 259.912 7.00667 260.332 6.78C260.752 6.54667 261.222 6.43 261.742 6.43C262.262 6.43 262.732 6.54667 263.152 6.78C263.572 7.00667 263.902 7.33333 264.142 7.76C264.389 8.18667 264.512 8.68333 264.512 9.25C264.512 9.81667 264.386 10.3167 264.132 10.75C263.886 11.1767 263.549 11.5067 263.122 11.74C262.696 11.9733 262.222 12.09 261.702 12.09ZM261.702 11.29C262.029 11.29 262.336 11.2133 262.622 11.06C262.909 10.9067 263.139 10.6767 263.312 10.37C263.492 10.0633 263.582 9.69 263.582 9.25C263.582 8.81 263.496 8.43667 263.322 8.13C263.149 7.82333 262.922 7.59667 262.642 7.45C262.362 7.29667 262.059 7.22 261.732 7.22C261.399 7.22 261.092 7.29667 260.812 7.45C260.539 7.59667 260.319 7.82333 260.152 8.13C259.986 8.43667 259.902 8.81 259.902 9.25C259.902 9.69667 259.982 10.0733 260.142 10.38C260.309 10.6867 260.529 10.9167 260.802 11.07C261.076 11.2167 261.376 11.29 261.702 11.29ZM266.619 7.53C266.799 7.21667 267.066 6.95667 267.419 6.75C267.779 6.53667 268.196 6.43 268.669 6.43C269.156 6.43 269.596 6.54667 269.989 6.78C270.389 7.01333 270.702 7.34333 270.929 7.77C271.156 8.19 271.269 8.68 271.269 9.24C271.269 9.79333 271.156 10.2867 270.929 10.72C270.702 11.1533 270.389 11.49 269.989 11.73C269.596 11.97 269.156 12.09 268.669 12.09C268.202 12.09 267.789 11.9867 267.429 11.78C267.076 11.5667 266.806 11.3033 266.619 10.99V14.6H265.709V6.52H266.619V7.53ZM270.339 9.24C270.339 8.82667 270.256 8.46667 270.089 8.16C269.922 7.85333 269.696 7.62 269.409 7.46C269.129 7.3 268.819 7.22 268.479 7.22C268.146 7.22 267.836 7.30333 267.549 7.47C267.269 7.63 267.042 7.86667 266.869 8.18C266.702 8.48667 266.619 8.84333 266.619 9.25C266.619 9.66333 266.702 10.0267 266.869 10.34C267.042 10.6467 267.269 10.8833 267.549 11.05C267.836 11.21 268.146 11.29 268.479 11.29C268.819 11.29 269.129 11.21 269.409 11.05C269.696 10.8833 269.922 10.6467 270.089 10.34C270.256 10.0267 270.339 9.66 270.339 9.24ZM275.187 6.42C275.6 6.42 275.973 6.51 276.307 6.69C276.64 6.86333 276.9 7.12667 277.087 7.48C277.28 7.83333 277.377 8.26333 277.377 8.77V12H276.477V8.9C276.477 8.35333 276.34 7.93667 276.067 7.65C275.793 7.35667 275.42 7.21 274.947 7.21C274.467 7.21 274.083 7.36 273.797 7.66C273.517 7.96 273.377 8.39667 273.377 8.97V12H272.467V4.6H273.377V7.3C273.557 7.02 273.803 6.80333 274.117 6.65C274.437 6.49667 274.793 6.42 275.187 6.42ZM283.583 6.52L280.283 14.58H279.343L280.423 11.94L278.213 6.52H279.223L280.943 10.96L282.643 6.52H283.583ZM285.408 4.6V12H284.498V4.6H285.408ZM287.869 4.6V12H286.959V4.6H287.869ZM235.763 28.07C235.117 28.07 234.527 27.92 233.993 27.62C233.46 27.3133 233.037 26.89 232.723 26.35C232.417 25.8033 232.263 25.19 232.263 24.51C232.263 23.83 232.417 23.22 232.723 22.68C233.037 22.1333 233.46 21.71 233.993 21.41C234.527 21.1033 235.117 20.95 235.763 20.95C236.417 20.95 237.01 21.1033 237.543 21.41C238.077 21.71 238.497 22.13 238.803 22.67C239.11 23.21 239.263 23.8233 239.263 24.51C239.263 25.1967 239.11 25.81 238.803 26.35C238.497 26.89 238.077 27.3133 237.543 27.62C237.01 27.92 236.417 28.07 235.763 28.07ZM235.763 27.28C236.25 27.28 236.687 27.1667 237.073 26.94C237.467 26.7133 237.773 26.39 237.993 25.97C238.22 25.55 238.333 25.0633 238.333 24.51C238.333 23.95 238.22 23.4633 237.993 23.05C237.773 22.63 237.47 22.3067 237.083 22.08C236.697 21.8533 236.257 21.74 235.763 21.74C235.27 21.74 234.83 21.8533 234.443 22.08C234.057 22.3067 233.75 22.63 233.523 23.05C233.303 23.4633 233.193 23.95 233.193 24.51C233.193 25.0633 233.303 25.55 233.523 25.97C233.75 26.39 234.057 26.7133 234.443 26.94C234.837 27.1667 235.277 27.28 235.763 27.28ZM242.505 27.16L244.205 22.52H245.175L243.025 28H241.965L239.815 22.52H240.795L242.505 27.16ZM251.07 25.05C251.07 25.2233 251.06 25.4067 251.04 25.6H246.66C246.694 26.14 246.877 26.5633 247.21 26.87C247.55 27.17 247.96 27.32 248.44 27.32C248.834 27.32 249.16 27.23 249.42 27.05C249.687 26.8633 249.874 26.6167 249.98 26.31H250.96C250.814 26.8367 250.52 27.2667 250.08 27.6C249.64 27.9267 249.094 28.09 248.44 28.09C247.92 28.09 247.454 27.9733 247.04 27.74C246.634 27.5067 246.314 27.1767 246.08 26.75C245.847 26.3167 245.73 25.8167 245.73 25.25C245.73 24.6833 245.844 24.1867 246.07 23.76C246.297 23.3333 246.614 23.0067 247.02 22.78C247.434 22.5467 247.907 22.43 248.44 22.43C248.96 22.43 249.42 22.5433 249.82 22.77C250.22 22.9967 250.527 23.31 250.74 23.71C250.96 24.1033 251.07 24.55 251.07 25.05ZM250.13 24.86C250.13 24.5133 250.054 24.2167 249.9 23.97C249.747 23.7167 249.537 23.5267 249.27 23.4C249.01 23.2667 248.72 23.2 248.4 23.2C247.94 23.2 247.547 23.3467 247.22 23.64C246.9 23.9333 246.717 24.34 246.67 24.86H250.13ZM253.181 23.41C253.341 23.0967 253.568 22.8533 253.861 22.68C254.161 22.5067 254.525 22.42 254.951 22.42V23.36H254.711C253.691 23.36 253.181 23.9133 253.181 25.02V28H252.271V22.52H253.181V23.41ZM258.262 22.43C258.735 22.43 259.149 22.5333 259.502 22.74C259.862 22.9467 260.129 23.2067 260.302 23.52V22.52H261.222V28.12C261.222 28.62 261.115 29.0633 260.902 29.45C260.689 29.8433 260.382 30.15 259.982 30.37C259.589 30.59 259.129 30.7 258.602 30.7C257.882 30.7 257.282 30.53 256.802 30.19C256.322 29.85 256.039 29.3867 255.952 28.8H256.852C256.952 29.1333 257.159 29.4 257.472 29.6C257.785 29.8067 258.162 29.91 258.602 29.91C259.102 29.91 259.509 29.7533 259.822 29.44C260.142 29.1267 260.302 28.6867 260.302 28.12V26.97C260.122 27.29 259.855 27.5567 259.502 27.77C259.149 27.9833 258.735 28.09 258.262 28.09C257.775 28.09 257.332 27.97 256.932 27.73C256.539 27.49 256.229 27.1533 256.002 26.72C255.775 26.2867 255.662 25.7933 255.662 25.24C255.662 24.68 255.775 24.19 256.002 23.77C256.229 23.3433 256.539 23.0133 256.932 22.78C257.332 22.5467 257.775 22.43 258.262 22.43ZM260.302 25.25C260.302 24.8367 260.219 24.4767 260.052 24.17C259.885 23.8633 259.659 23.63 259.372 23.47C259.092 23.3033 258.782 23.22 258.442 23.22C258.102 23.22 257.792 23.3 257.512 23.46C257.232 23.62 257.009 23.8533 256.842 24.16C256.675 24.4667 256.592 24.8267 256.592 25.24C256.592 25.66 256.675 26.0267 256.842 26.34C257.009 26.6467 257.232 26.8833 257.512 27.05C257.792 27.21 258.102 27.29 258.442 27.29C258.782 27.29 259.092 27.21 259.372 27.05C259.659 26.8833 259.885 26.6467 260.052 26.34C260.219 26.0267 260.302 25.6633 260.302 25.25ZM263.67 23.41C263.83 23.0967 264.056 22.8533 264.35 22.68C264.65 22.5067 265.013 22.42 265.44 22.42V23.36H265.2C264.18 23.36 263.67 23.9133 263.67 25.02V28H262.76V22.52H263.67V23.41ZM268.88 28.09C268.367 28.09 267.9 27.9733 267.48 27.74C267.067 27.5067 266.74 27.1767 266.5 26.75C266.267 26.3167 266.15 25.8167 266.15 25.25C266.15 24.69 266.27 24.1967 266.51 23.77C266.757 23.3367 267.09 23.0067 267.51 22.78C267.93 22.5467 268.4 22.43 268.92 22.43C269.44 22.43 269.91 22.5467 270.33 22.78C270.75 23.0067 271.08 23.3333 271.32 23.76C271.567 24.1867 271.69 24.6833 271.69 25.25C271.69 25.8167 271.564 26.3167 271.31 26.75C271.064 27.1767 270.727 27.5067 270.3 27.74C269.874 27.9733 269.4 28.09 268.88 28.09ZM268.88 27.29C269.207 27.29 269.514 27.2133 269.8 27.06C270.087 26.9067 270.317 26.6767 270.49 26.37C270.67 26.0633 270.76 25.69 270.76 25.25C270.76 24.81 270.674 24.4367 270.5 24.13C270.327 23.8233 270.1 23.5967 269.82 23.45C269.54 23.2967 269.237 23.22 268.91 23.22C268.577 23.22 268.27 23.2967 267.99 23.45C267.717 23.5967 267.497 23.8233 267.33 24.13C267.164 24.4367 267.08 24.81 267.08 25.25C267.08 25.6967 267.16 26.0733 267.32 26.38C267.487 26.6867 267.707 26.9167 267.98 27.07C268.254 27.2167 268.554 27.29 268.88 27.29ZM280.187 22.52L278.477 28H277.537L276.217 23.65L274.897 28H273.957L272.237 22.52H273.167L274.427 27.12L275.787 22.52H276.717L278.047 27.13L279.287 22.52H280.187Z" fill="#1D1D1D"/>
<path d="M253.789 39.464V45H253.061V40.872L251.221 45H250.709L248.861 40.864V45H248.133V39.464H248.917L250.965 44.04L253.013 39.464H253.789ZM256.936 45.072C256.525 45.072 256.152 44.9787 255.816 44.792C255.485 44.6053 255.224 44.3413 255.032 44C254.845 43.6533 254.752 43.2533 254.752 42.8C254.752 42.352 254.848 41.9573 255.04 41.616C255.237 41.2693 255.504 41.0053 255.84 40.824C256.176 40.6373 256.552 40.544 256.968 40.544C257.384 40.544 257.76 40.6373 258.096 40.824C258.432 41.0053 258.696 41.2667 258.888 41.608C259.085 41.9493 259.184 42.3467 259.184 42.8C259.184 43.2533 259.082 43.6533 258.88 44C258.682 44.3413 258.413 44.6053 258.072 44.792C257.73 44.9787 257.352 45.072 256.936 45.072ZM256.936 44.432C257.197 44.432 257.442 44.3707 257.672 44.248C257.901 44.1253 258.085 43.9413 258.224 43.696C258.368 43.4507 258.44 43.152 258.44 42.8C258.44 42.448 258.37 42.1493 258.232 41.904C258.093 41.6587 257.912 41.4773 257.688 41.36C257.464 41.2373 257.221 41.176 256.96 41.176C256.693 41.176 256.448 41.2373 256.224 41.36C256.005 41.4773 255.829 41.6587 255.696 41.904C255.562 42.1493 255.496 42.448 255.496 42.8C255.496 43.1573 255.56 43.4587 255.688 43.704C255.821 43.9493 255.997 44.1333 256.216 44.256C256.434 44.3733 256.674 44.432 256.936 44.432ZM261.773 44.328L263.133 40.616H263.909L262.189 45H261.341L259.621 40.616H260.405L261.773 44.328ZM268.625 42.64C268.625 42.7787 268.617 42.9253 268.601 43.08H265.097C265.124 43.512 265.271 43.8507 265.537 44.096C265.809 44.336 266.137 44.456 266.521 44.456C266.836 44.456 267.097 44.384 267.305 44.24C267.519 44.0907 267.668 43.8933 267.753 43.648H268.537C268.42 44.0693 268.185 44.4133 267.833 44.68C267.481 44.9413 267.044 45.072 266.521 45.072C266.105 45.072 265.732 44.9787 265.401 44.792C265.076 44.6053 264.82 44.3413 264.633 44C264.447 43.6533 264.353 43.2533 264.353 42.8C264.353 42.3467 264.444 41.9493 264.625 41.608C264.807 41.2667 265.06 41.0053 265.385 40.824C265.716 40.6373 266.095 40.544 266.521 40.544C266.937 40.544 267.305 40.6347 267.625 40.816C267.945 40.9973 268.191 41.248 268.361 41.568C268.537 41.8827 268.625 42.24 268.625 42.64ZM267.873 42.488C267.873 42.2107 267.812 41.9733 267.689 41.776C267.567 41.5733 267.399 41.4213 267.185 41.32C266.977 41.2133 266.745 41.16 266.489 41.16C266.121 41.16 265.807 41.2773 265.545 41.512C265.289 41.7467 265.143 42.072 265.105 42.488H267.873ZM271.138 45.072C270.802 45.072 270.501 45.016 270.234 44.904C269.967 44.7867 269.757 44.6267 269.602 44.424C269.447 44.216 269.362 43.9787 269.346 43.712H270.098C270.119 43.9307 270.221 44.1093 270.402 44.248C270.589 44.3867 270.831 44.456 271.13 44.456C271.407 44.456 271.626 44.3947 271.786 44.272C271.946 44.1493 272.026 43.9947 272.026 43.808C272.026 43.616 271.941 43.4747 271.77 43.384C271.599 43.288 271.335 43.1947 270.978 43.104C270.653 43.0187 270.386 42.9333 270.178 42.848C269.975 42.7573 269.799 42.6267 269.65 42.456C269.506 42.28 269.434 42.0507 269.434 41.768C269.434 41.544 269.501 41.3387 269.634 41.152C269.767 40.9653 269.957 40.8187 270.202 40.712C270.447 40.6 270.727 40.544 271.042 40.544C271.527 40.544 271.919 40.6667 272.218 40.912C272.517 41.1573 272.677 41.4933 272.698 41.92H271.97C271.954 41.6907 271.861 41.5067 271.69 41.368C271.525 41.2293 271.301 41.16 271.018 41.16C270.757 41.16 270.549 41.216 270.394 41.328C270.239 41.44 270.162 41.5867 270.162 41.768C270.162 41.912 270.207 42.032 270.298 42.128C270.394 42.2187 270.511 42.2933 270.65 42.352C270.794 42.4053 270.991 42.4667 271.242 42.536C271.557 42.6213 271.813 42.7067 272.01 42.792C272.207 42.872 272.375 42.9947 272.514 43.16C272.658 43.3253 272.733 43.5413 272.738 43.808C272.738 44.048 272.671 44.264 272.538 44.456C272.405 44.648 272.215 44.8 271.97 44.912C271.73 45.0187 271.453 45.072 271.138 45.072Z" fill="#666666"/>
</g>
<defs>
<clipPath id="clip0_1419_125">
<rect width="312" height="48" fill="white"/>
</clipPath>
</defs>
</svg>
